<svg width="192" height="49" viewBox="0 0 192 49" fill="none" xmlns="http://www.w3.org/2000/svg">
<path d="M49.4982 34.2196V8.82762H33.4182V5.89962H68.5062V8.82762H52.3782V34.2196H49.4982ZM55.0182 36.9076V11.5156H71.1462V3.21162H30.7782V11.5156H46.8582V36.9076H55.0182ZM29.5782 12.7156V2.01162H72.3462L77.0022 6.95562V17.3716H60.8742V42.7636H50.6022L45.6582 38.1076V17.3716H34.5222L29.5782 12.7156ZM88.9969 5.89962V20.0596C88.9969 22.1396 89.3329 23.8996 90.0049 25.3396C90.6769 26.7476 91.6049 27.8996 92.7889 28.7956C94.0049 29.6596 95.4129 30.2996 97.0129 30.7156C98.6129 31.0996 100.357 31.2916 102.245 31.2916H107.525C109.381 31.2916 111.109 31.0996 112.709 30.7156C114.341 30.2996 115.749 29.6596 116.933 28.7956C118.149 27.8996 119.093 26.7476 119.765 25.3396C120.469 23.8996 120.821 22.1396 120.821 20.0596V5.89962H123.845V20.0596C123.845 22.6516 123.429 24.8436 122.597 26.6356C121.765 28.4276 120.613 29.8996 119.141 31.0516C117.701 32.1716 115.989 32.9876 114.005 33.4996C112.021 33.9796 109.861 34.2196 107.525 34.2196H102.245C99.9089 34.2196 97.7329 33.9796 95.7169 33.4996C93.7329 32.9876 92.0049 32.1716 90.5329 31.0516C89.0929 29.8996 87.9569 28.4276 87.1249 26.6356C86.3249 24.8436 85.9249 22.6516 85.9249 20.0596V5.89962H88.9969ZM83.2849 20.0596C83.2849 23.0996 83.7489 25.6916 84.6769 27.8356C85.6049 29.9476 86.9009 31.6756 88.5649 33.0196C90.2609 34.3636 92.2609 35.3556 94.5649 35.9956C96.9009 36.6036 99.4609 36.9076 102.245 36.9076H107.525C110.309 36.9076 112.853 36.6036 115.157 35.9956C117.493 35.3556 119.493 34.3636 121.157 33.0196C122.853 31.6756 124.165 29.9476 125.093 27.8356C126.021 25.6916 126.485 23.0996 126.485 20.0596V3.21162H118.133V20.0596C118.133 21.6916 117.845 23.0516 117.269 24.1396C116.693 25.2276 115.925 26.1076 114.965 26.7796C114.005 27.4196 112.885 27.8836 111.605 28.1716C110.325 28.4596 108.965 28.6036 107.525 28.6036H102.245C100.805 28.6036 99.4449 28.4596 98.1649 28.1716C96.8849 27.8836 95.7649 27.4036 94.8049 26.7316C93.8449 26.0596 93.0769 25.1796 92.5009 24.0916C91.9569 23.0036 91.6849 21.6596 91.6849 20.0596V3.21162H83.2849V20.0596ZM82.0849 2.01162H92.8849L97.5409 6.95562V24.8596C97.5409 25.2116 97.5409 25.5476 97.5409 25.8676C97.5729 26.1876 97.6209 26.4916 97.6849 26.7796C99.0289 27.1956 100.549 27.4036 102.245 27.4036H107.525C108.773 27.4036 109.957 27.2916 111.077 27.0676C112.229 26.8116 113.237 26.3956 114.101 25.8196C114.965 25.2436 115.653 24.4916 116.165 23.5636C116.677 22.6356 116.933 21.4676 116.933 20.0596V2.01162H127.685L132.341 6.95562V24.8596C132.341 28.0916 131.845 30.8436 130.853 33.1156C129.861 35.3876 128.485 37.2276 126.725 38.6356C124.965 40.0756 122.853 41.1156 120.389 41.7556C117.925 42.4276 115.237 42.7636 112.325 42.7636H107.045C105.413 42.7636 103.829 42.6836 102.293 42.5236C100.789 42.3636 99.3489 42.0916 97.9729 41.7076C96.6289 41.3556 95.3809 40.8756 94.2289 40.2676C93.0769 39.6596 92.0529 38.9076 91.1569 38.0116C89.3329 36.4436 87.8289 34.9556 86.6449 33.5476C85.4929 32.1076 84.5809 30.6676 83.9089 29.2276C83.2369 27.7876 82.7569 26.3316 82.4689 24.8596C82.2129 23.3556 82.0849 21.7556 82.0849 20.0596V2.01162ZM144.573 27.6436C145.597 28.6356 146.733 29.3876 147.981 29.8996C149.229 30.4116 150.525 30.7796 151.869 31.0036C153.213 31.1956 154.589 31.3076 155.997 31.3396C157.405 31.3396 158.765 31.3396 160.077 31.3396C160.557 31.3396 161.197 31.3236 161.997 31.2916C162.829 31.2596 163.709 31.1956 164.637 31.0996C165.597 30.9716 166.557 30.8116 167.517 30.6196C168.477 30.3956 169.341 30.1076 170.109 29.7556C170.909 29.4036 171.549 28.9876 172.029 28.5076C172.541 27.9956 172.797 27.3876 172.797 26.6836C172.797 25.9796 172.525 25.3716 171.981 24.8596C171.469 24.3156 170.797 23.8516 169.965 23.4676C169.133 23.0836 168.189 22.7636 167.133 22.5076C166.109 22.2196 165.085 22.0116 164.061 21.8836C163.037 21.7236 162.077 21.6116 161.181 21.5476C160.317 21.4836 159.613 21.4516 159.069 21.4516H159.117C158.349 21.4196 157.405 21.3396 156.285 21.2116C155.165 21.0836 153.997 20.8916 152.781 20.6356C151.565 20.3796 150.349 20.0596 149.133 19.6756C147.917 19.2596 146.829 18.7636 145.869 18.1876C144.909 17.6116 144.125 16.9396 143.517 16.1716C142.909 15.3716 142.605 14.4596 142.605 13.4356C142.605 12.3156 142.893 11.3556 143.469 10.5556C144.077 9.75562 144.845 9.08362 145.773 8.53962C146.733 7.96362 147.805 7.51562 148.989 7.19562C150.173 6.84362 151.373 6.57162 152.589 6.37962C153.805 6.18762 154.957 6.05962 156.045 5.99562C157.165 5.93162 158.109 5.89962 158.877 5.89962C160.125 5.89962 161.389 5.96362 162.669 6.09162C163.981 6.18762 165.261 6.37962 166.509 6.66762C167.757 6.95562 168.973 7.35562 170.157 7.86762C171.341 8.34762 172.429 8.97162 173.421 9.73962L170.877 11.5636C169.949 10.9236 168.973 10.4276 167.949 10.0756C166.925 9.69162 165.869 9.40362 164.781 9.21162C163.693 9.01962 162.589 8.90762 161.469 8.87562C160.349 8.81162 159.261 8.77962 158.205 8.77962C157.469 8.77962 156.461 8.82762 155.181 8.92362C153.933 9.01962 152.685 9.22762 151.437 9.54762C150.221 9.83562 149.165 10.2996 148.269 10.9396C147.373 11.5476 146.925 12.3796 146.925 13.4356C146.925 14.4596 147.357 15.2916 148.221 15.9316C149.085 16.5396 150.221 17.0356 151.629 17.4196C153.037 17.7716 154.637 18.0596 156.429 18.2836C158.253 18.4756 160.109 18.6836 161.997 18.9076C163.885 19.1316 165.725 19.4036 167.517 19.7236C169.341 20.0116 170.957 20.4436 172.365 21.0196C173.773 21.5636 174.909 22.2996 175.773 23.2276C176.637 24.1236 177.069 25.2756 177.069 26.6836C177.069 27.6756 176.765 28.5556 176.157 29.3236C175.581 30.0916 174.813 30.7636 173.853 31.3396C172.893 31.8836 171.805 32.3476 170.589 32.7316C169.405 33.0836 168.205 33.3716 166.989 33.5956C165.805 33.8196 164.669 33.9796 163.581 34.0756C162.493 34.1716 161.597 34.2196 160.893 34.2196H157.293C155.981 34.2196 154.605 34.1716 153.165 34.0756C151.725 33.9796 150.317 33.7716 148.941 33.4516C147.565 33.0996 146.253 32.6196 145.005 32.0116C143.757 31.4036 142.653 30.5716 141.693 29.5156L144.573 27.6436ZM137.709 28.5076C138.989 30.5876 140.509 32.2036 142.269 33.3556C144.029 34.4756 145.933 35.3076 147.981 35.8516C150.029 36.3636 152.141 36.6676 154.317 36.7636C156.525 36.8596 158.717 36.9076 160.893 36.9076C161.853 36.9076 162.989 36.8436 164.301 36.7156C165.613 36.5556 166.973 36.3156 168.381 35.9956C169.789 35.6756 171.165 35.2596 172.509 34.7476C173.885 34.2036 175.101 33.5636 176.157 32.8276C177.245 32.0596 178.109 31.1796 178.749 30.1876C179.421 29.1636 179.757 27.9956 179.757 26.6836C179.757 25.1156 179.405 23.7876 178.701 22.6996C178.029 21.5796 177.133 20.6516 176.013 19.9156C174.925 19.1476 173.661 18.5396 172.221 18.0916C170.813 17.6116 169.357 17.2436 167.853 16.9876C166.349 16.7316 164.877 16.5396 163.437 16.4116C161.997 16.2836 160.717 16.1716 159.597 16.0756C159.213 16.0436 158.477 15.9796 157.389 15.8836C156.301 15.7556 155.181 15.5956 154.029 15.4036C152.877 15.1796 151.853 14.9076 150.957 14.5876C150.061 14.2676 149.613 13.8836 149.613 13.4356C149.613 12.9236 150.029 12.5396 150.861 12.2836C151.693 12.0276 152.637 11.8356 153.693 11.7076C154.781 11.5796 155.821 11.5156 156.813 11.5156C157.837 11.4836 158.525 11.4676 158.877 11.4676C159.901 11.4676 160.941 11.5156 161.997 11.6116C163.053 11.6756 164.077 11.8356 165.069 12.0916C166.093 12.3476 167.053 12.7156 167.949 13.1956C168.877 13.6756 169.725 14.2996 170.493 15.0676L177.501 10.3636C176.285 8.69962 174.909 7.40362 173.373 6.47562C171.837 5.51562 170.205 4.79562 168.477 4.31562C166.749 3.83562 164.941 3.53162 163.053 3.40362C161.197 3.27562 159.325 3.21162 157.437 3.21162C156.445 3.21162 155.309 3.29162 154.029 3.45162C152.781 3.57962 151.501 3.80362 150.189 4.12362C148.909 4.44362 147.645 4.85962 146.397 5.37162C145.181 5.88362 144.093 6.52362 143.133 7.29162C142.173 8.05962 141.405 8.95562 140.829 9.97962C140.253 10.9716 139.965 12.1236 139.965 13.4356C139.965 14.9396 140.333 16.2356 141.069 17.3236C141.805 18.4116 142.781 19.3396 143.997 20.1076C145.213 20.8756 146.589 21.4996 148.125 21.9796C149.661 22.4596 151.213 22.8596 152.781 23.1796C154.381 23.4676 155.917 23.7076 157.389 23.8996C158.893 24.0596 160.205 24.2036 161.325 24.3316C161.645 24.3636 162.269 24.4276 163.197 24.5236C164.157 24.6196 165.149 24.7636 166.173 24.9556C167.197 25.1156 168.109 25.3396 168.909 25.6276C169.709 25.9156 170.109 26.2676 170.109 26.6836C170.109 27.0356 169.853 27.3396 169.341 27.5956C168.829 27.8196 168.173 28.0116 167.373 28.1716C166.573 28.2996 165.693 28.3956 164.733 28.4596C163.773 28.5236 162.829 28.5716 161.901 28.6036C161.005 28.6356 160.189 28.6516 159.453 28.6516C158.749 28.6516 158.253 28.6516 157.965 28.6516C156.749 28.6516 155.549 28.6036 154.365 28.5076C153.181 28.3796 152.029 28.1556 150.909 27.8356C149.789 27.4836 148.733 27.0036 147.741 26.3956C146.749 25.7876 145.853 24.9716 145.053 23.9476L137.709 28.5076ZM144.669 22.7476L142.365 20.3956C141.245 19.5636 140.365 18.5876 139.725 17.4676C139.085 16.3156 138.765 14.9716 138.765 13.4356C138.765 11.9636 139.069 10.6676 139.677 9.54762C140.317 8.39562 141.149 7.40362 142.173 6.57162C143.197 5.73962 144.365 5.03562 145.677 4.45962C146.989 3.85162 148.333 3.37162 149.709 3.01962C151.085 2.66762 152.445 2.41162 153.789 2.25162C155.133 2.09162 156.349 2.01162 157.437 2.01162C159.325 2.01162 161.229 2.07562 163.149 2.20362C165.069 2.29962 166.941 2.58762 168.765 3.06762C170.621 3.54762 172.397 4.28362 174.093 5.27562C175.789 6.26762 177.373 7.65962 178.845 9.45162C179.837 10.4436 180.621 11.2756 181.197 11.9476C181.773 12.5876 182.221 13.1316 182.541 13.5796C182.893 14.0276 183.149 14.3956 183.309 14.6836C183.469 14.9396 183.629 15.1796 183.789 15.4036L177.645 19.5316C177.805 19.6916 177.981 19.8356 178.173 19.9636C178.397 20.0596 178.701 20.2676 179.085 20.5876C179.469 20.9076 179.965 21.3716 180.573 21.9796C181.213 22.5556 182.061 23.3876 183.117 24.4756C183.885 25.2756 184.493 26.2996 184.941 27.5476C185.389 28.7956 185.613 30.1076 185.613 31.4836C185.613 32.9236 185.261 34.2036 184.557 35.3236C183.853 36.4436 182.941 37.4196 181.821 38.2516C180.701 39.0836 179.421 39.7876 177.981 40.3636C176.541 40.9396 175.085 41.4036 173.613 41.7556C172.141 42.1076 170.701 42.3636 169.293 42.5236C167.917 42.6836 166.717 42.7636 165.693 42.7636C163.805 42.7636 161.885 42.7636 159.933 42.7636C157.981 42.7636 156.061 42.6036 154.173 42.2836C152.317 41.9636 150.509 41.4356 148.749 40.6996C146.989 39.9636 145.373 38.8436 143.901 37.3396C142.653 36.1876 141.597 35.1796 140.733 34.3156C139.901 33.4196 139.181 32.6196 138.573 31.9156C137.997 31.1796 137.501 30.5076 137.085 29.8996C136.701 29.2916 136.333 28.6996 135.981 28.1236L144.669 22.7476Z" fill="#37393F"/>
</svg>
