<svg width="42" height="42" viewBox="0 0 42 42" fill="none" xmlns="http://www.w3.org/2000/svg">
<path d="M40.6285 11.743L38.2682 14.8006L37.7748 18.6327L33.9431 19.1257L30.8855 21.4861L27.8279 19.1257L23.9962 18.6327L23.5028 14.8006L21.1425 11.743L23.5028 8.68585L23.9962 4.85373L27.8279 4.36077L30.8855 2L33.9431 4.36077L37.7748 4.85373L38.2682 8.68585L40.6285 11.743Z" stroke="#40DDB6" stroke-width="2" stroke-miterlimit="10"/>
<path d="M36.1856 18.3203V29.8355L30.8855 26.2841L25.5854 29.8355V18.3203" stroke="#40DDB6" stroke-width="2" stroke-miterlimit="10"/>
<path d="M23.0054 21.5669C21.4037 23.8274 18.7681 25.2879 15.8132 25.2879C11.2149 25.2879 7.39032 21.7511 7.03063 17.167L5.99625 3.96826H21.9071" stroke="#40DDB6" stroke-width="2" stroke-miterlimit="10"/>
<path d="M6.78954 17.1896H4.58167C3.50176 17.1896 2.59229 16.3817 2.4653 15.3093L1.13222 8.99438C0.981825 7.72689 1.97234 6.6123 3.2486 6.6123H6.19423" stroke="#40DDB6" stroke-width="2" stroke-miterlimit="10"/>
<path d="M17.9839 24.854C17.9839 24.854 18.4468 30.2089 21.2232 32.5884" stroke="#40DDB6" stroke-width="2" stroke-miterlimit="10"/>
<path d="M13.7963 24.854C13.7963 24.854 13.3334 30.2089 10.557 32.5884" stroke="#40DDB6" stroke-width="2" stroke-miterlimit="10"/>
<path d="M24.0874 36.8744H7.69278V34.4614C7.69278 33.2743 8.58052 32.3123 9.67589 32.3123H22.1039C23.1992 32.3123 24.087 33.2743 24.087 34.4614V36.8744H24.0874Z" stroke="#40DDB6" stroke-width="2" stroke-miterlimit="10"/>
<path d="M25.9607 40.1697H5.81955V39.0234C5.81955 37.8363 6.70729 36.8743 7.80266 36.8743H23.9775C25.0729 36.8743 25.9607 37.8363 25.9607 39.0234V40.1697V40.1697Z" stroke="#40DDB6" stroke-width="2" stroke-miterlimit="10"/>
<path d="M5.81956 40.1697H25.9607V39.0234C25.9607 37.8363 25.0729 36.8743 23.9776 36.8743H7.80267C6.7073 36.8743 5.81956 37.8363 5.81956 39.0234V40.1697V40.1697Z" stroke="#40DDB6" stroke-width="2" stroke-miterlimit="10"/>
<path d="M26.7541 13.8181L29.2661 15.6692L35.2818 8.00073" stroke="#40DDB6" stroke-width="2" stroke-miterlimit="10"/>
</svg>
